<svg width="2263" height="2023" viewBox="0 0 2263 2023" fill="none" xmlns="http://www.w3.org/2000/svg">
<path d="M571 28H1350.03C1479.87 28 1573.85 57.6686 1631.97 117.006C1691.32 175.107 1721 269.057 1721 398.857V584.286C1721 714.086 1691.32 808.654 1631.97 867.991C1573.85 926.092 1479.87 955.143 1350.03 955.143H904.871V1326H571V28ZM1387.13 398.857C1387.13 324.686 1350.03 287.6 1275.84 287.6H904.871V695.543H1275.84C1350.03 695.543 1387.13 658.457 1387.13 584.286V398.857Z" fill="#255E7E"/>
<rect x="709" y="160" width="86" height="86" fill="#50ABE4"/>
<rect x="668" y="248" width="30" height="30" fill="#A0EBFF"/>
<path d="M832 235H925V328H832V235Z" fill="white"/>
<rect x="814" y="82" width="68" height="68" fill="#00A0CA"/>
<rect x="541" width="163" height="150" fill="#59DCFF"/>
<path d="M571 1083.76C698.944 1184.24 613.504 1287.01 571 1325.83H905.99V1124.83C668 1051.02 855 962.628 871 948.02C922.5 901 872 845.4 834 828.021C729 780 838.5 718 905 695.5C646.01 700.624 665 792.905 702 849.952C739 907 661.051 944.641 571 969V1083.76Z" fill="white"/>
<path d="M36 1876V1596H175.6L222 1622.8V1741.6L175.6 1768.4H76V1876H36ZM76 1632V1732.4H182V1632H76ZM407.6 1596L507.6 1876H468.4L444.8 1809.6H320.8L297.2 1876H258L358 1596H407.6ZM382.4 1635.6L333.6 1773.6H432L383.2 1635.6H382.4ZM593.797 1876V1752.4L499.797 1596H544.597L613.397 1715.2H614.197L683.397 1596H728.197L633.797 1752.8V1876H593.797ZM870.1 1596L970.1 1876H930.9L907.3 1809.6H783.3L759.7 1876H720.5L820.5 1596H870.1ZM844.9 1635.6L796.1 1773.6H894.5L845.7 1635.6H844.9ZM1054.13 1664.4V1876H1014.13V1596H1050.53L1195.33 1807.6H1196.13V1596H1236.13V1876H1199.73L1054.93 1664.4H1054.13ZM1403.87 1632V1876H1363.87V1632H1284.27V1596H1483.47V1632H1403.87ZM1571.31 1750V1840H1690.91V1876H1531.31V1596H1690.91V1632H1571.31V1714H1666.91V1750H1571.31ZM1904.94 1806H1944.94V1851.2L1898.54 1878H1793.34L1746.94 1851.2V1620.8L1793.34 1594H1898.54L1944.94 1620.8V1666H1904.94V1630H1786.94V1842H1904.94V1806ZM2052.95 1750V1876H2012.95V1596H2052.95V1714H2186.95V1596H2226.95V1876H2186.95V1750H2052.95Z" fill="white"/>
</svg>
